<svg width="1200" height="1200" viewBox="0 0 1200 1200" fill="none" xmlns="http://www.w3.org/2000/svg">
<rect width="1200" height="1200" fill="#F6F6F6"/>
<path d="M953.516 513.646H246.484V845.453H953.516V513.646Z" fill="#FCFCFC" stroke="#AFAFAF" stroke-width="5.21739" stroke-linecap="round" stroke-linejoin="round"/>
<path d="M640.666 760.564C631.009 768.524 622.609 775.971 613.988 785.044C605.422 775.781 597.009 767.452 587.853 758.772C582.304 768.41 576.226 778.18 570.683 787.813C560.247 779.127 550.329 770.822 539.898 762.136L544.417 845.441H648.393C645.911 817.068 643.095 789.027 640.666 760.564Z" fill="#F1F1F2" stroke="#AFAFAF" stroke-width="5.21739" stroke-linecap="round" stroke-linejoin="round"/>
<path d="M547.017 598.878C556.674 590.918 565.074 583.47 573.695 574.397C582.262 583.661 590.674 591.99 599.83 600.67C605.379 591.031 611.457 581.262 617 571.629C627.436 580.315 637.354 588.62 647.785 597.306L643.266 514L539.29 514C541.772 542.374 544.588 570.414 547.017 598.878Z" fill="#FCFCFC" stroke="#AFAFAF" stroke-width="5.21739" stroke-linecap="round" stroke-linejoin="round"/>
<path d="M367.031 438.576L393.011 464.089" stroke="#AFAFAF" stroke-width="5.21739" stroke-linecap="round" stroke-linejoin="round"/>
<path d="M453.161 354.547C461.371 371.678 469.369 388.913 477.156 406.251" stroke="#AFAFAF" stroke-width="5.21739" stroke-linecap="round" stroke-linejoin="round"/>
<path d="M684.239 411.429C691.661 400.284 699.89 389.698 708.86 379.755" stroke="#AFAFAF" stroke-width="5.21739" stroke-linecap="round" stroke-linejoin="round"/>
<path d="M572.734 392.365L591.509 421.491M566.6 407.883L600.132 404.821M576.754 422.831L588.056 390.259" stroke="#AFAFAF" stroke-width="5.21739" stroke-linecap="round" stroke-linejoin="round"/>
<path d="M390.065 594.323C384.813 593.362 379.677 591.035 376.153 587.033C371.952 582.27 370.234 575.022 368.916 568.82C367.829 574.912 365.035 580.763 360.618 585.101C356.202 589.439 350.115 592.143 343.923 592.043C349.569 593.293 355.319 594.801 359.573 598.724C362.283 601.218 364.09 604.59 365.151 608.119C366.129 611.677 366.643 615.347 366.679 619.038C367.219 613.907 368.957 608.974 371.752 604.637C372.948 602.721 374.421 600.993 376.122 599.506C379.84 596.36 385.212 594.564 390.065 594.323Z" stroke="#AFAFAF" stroke-width="5.21739" stroke-linecap="round" stroke-linejoin="round"/>
<path d="M776.881 473.122C771.933 471.846 767.62 468.81 764.749 464.582C762.123 460.707 760.663 455.796 759.975 451.18C759.035 456.783 756.299 462.151 752.019 465.885C750.516 467.228 748.779 468.282 746.893 468.994C744.999 469.707 742.944 469.876 740.958 469.482C745.034 471.095 749.031 472.922 752.024 476.126C753.937 478.257 755.346 480.792 756.147 483.541C756.942 486.276 757.394 489.098 757.491 491.944C757.896 486.908 759.902 481.672 763.52 478.148C764.493 477.19 765.59 476.367 766.782 475.7C769.897 474.056 773.358 473.173 776.881 473.122Z" stroke="#AFAFAF" stroke-width="5.21739" stroke-linecap="round" stroke-linejoin="round"/>
</svg>
